<mxfile host="app.diagrams.net" modified="2023-10-02T20:20:05.411Z" agent="Mozilla/5.0 (Windows NT 10.0; Win64; x64) AppleWebKit/537.36 (KHTML, like Gecko) Chrome/116.0.0.0 Safari/537.36" etag="1aDQ1fAl5l1crV6otj3F" version="22.0.0" type="google">
  <diagram name="Page-1" id="BVVNzLs9vAMI0uSD2Lsq">
    <mxGraphModel grid="1" page="1" gridSize="10" guides="1" tooltips="1" connect="1" arrows="1" fold="1" pageScale="1" pageWidth="1700" pageHeight="1100" math="0" shadow="0">
      <root>
        <mxCell id="0" />
        <mxCell id="1" parent="0" />
        <mxCell id="6q0HeRaA8yAOjNS2j1A4-10" style="edgeStyle=orthogonalEdgeStyle;rounded=0;orthogonalLoop=1;jettySize=auto;html=1;" edge="1" parent="1" source="6q0HeRaA8yAOjNS2j1A4-1" target="6q0HeRaA8yAOjNS2j1A4-8">
          <mxGeometry relative="1" as="geometry" />
        </mxCell>
        <mxCell id="6q0HeRaA8yAOjNS2j1A4-12" style="edgeStyle=orthogonalEdgeStyle;rounded=0;orthogonalLoop=1;jettySize=auto;html=1;" edge="1" parent="1" source="6q0HeRaA8yAOjNS2j1A4-1" target="_0W_UiDIhL5YJicFL3R5-1">
          <mxGeometry relative="1" as="geometry">
            <Array as="points">
              <mxPoint x="490" y="140" />
              <mxPoint x="490" y="210" />
            </Array>
          </mxGeometry>
        </mxCell>
        <mxCell id="6q0HeRaA8yAOjNS2j1A4-14" style="edgeStyle=orthogonalEdgeStyle;rounded=0;orthogonalLoop=1;jettySize=auto;html=1;" edge="1" parent="1" source="6q0HeRaA8yAOjNS2j1A4-1" target="yUeIj0rYSy2zIqelzKpr-1">
          <mxGeometry relative="1" as="geometry">
            <Array as="points">
              <mxPoint x="490" y="140" />
              <mxPoint x="490" y="280" />
            </Array>
          </mxGeometry>
        </mxCell>
        <mxCell id="6q0HeRaA8yAOjNS2j1A4-17" style="edgeStyle=orthogonalEdgeStyle;rounded=0;orthogonalLoop=1;jettySize=auto;html=1;" edge="1" parent="1" source="6q0HeRaA8yAOjNS2j1A4-1" target="6q0HeRaA8yAOjNS2j1A4-16">
          <mxGeometry relative="1" as="geometry">
            <Array as="points">
              <mxPoint x="490" y="140" />
              <mxPoint x="490" y="350" />
            </Array>
          </mxGeometry>
        </mxCell>
        <mxCell id="6q0HeRaA8yAOjNS2j1A4-18" style="edgeStyle=orthogonalEdgeStyle;rounded=0;orthogonalLoop=1;jettySize=auto;html=1;" edge="1" parent="1" source="6q0HeRaA8yAOjNS2j1A4-1" target="6q0HeRaA8yAOjNS2j1A4-7">
          <mxGeometry relative="1" as="geometry">
            <Array as="points">
              <mxPoint x="490" y="140" />
              <mxPoint x="490" y="430" />
            </Array>
          </mxGeometry>
        </mxCell>
        <mxCell id="6q0HeRaA8yAOjNS2j1A4-20" value="" style="edgeStyle=orthogonalEdgeStyle;rounded=0;orthogonalLoop=1;jettySize=auto;html=1;" edge="1" parent="1" source="6q0HeRaA8yAOjNS2j1A4-1" target="6q0HeRaA8yAOjNS2j1A4-19">
          <mxGeometry relative="1" as="geometry" />
        </mxCell>
        <mxCell id="6q0HeRaA8yAOjNS2j1A4-21" value="map button" style="edgeStyle=orthogonalEdgeStyle;rounded=0;orthogonalLoop=1;jettySize=auto;html=1;" edge="1" parent="1" source="6q0HeRaA8yAOjNS2j1A4-1" target="6q0HeRaA8yAOjNS2j1A4-6">
          <mxGeometry relative="1" as="geometry">
            <Array as="points">
              <mxPoint x="370" y="220" />
              <mxPoint x="210" y="220" />
            </Array>
          </mxGeometry>
        </mxCell>
        <mxCell id="6q0HeRaA8yAOjNS2j1A4-23" style="edgeStyle=orthogonalEdgeStyle;rounded=0;orthogonalLoop=1;jettySize=auto;html=1;" edge="1" parent="1" source="6q0HeRaA8yAOjNS2j1A4-1" target="6q0HeRaA8yAOjNS2j1A4-22">
          <mxGeometry relative="1" as="geometry">
            <Array as="points">
              <mxPoint x="370" y="350" />
              <mxPoint x="370" y="350" />
            </Array>
          </mxGeometry>
        </mxCell>
        <mxCell id="6q0HeRaA8yAOjNS2j1A4-26" style="edgeStyle=orthogonalEdgeStyle;rounded=0;orthogonalLoop=1;jettySize=auto;html=1;" edge="1" parent="1" source="6q0HeRaA8yAOjNS2j1A4-1" target="6q0HeRaA8yAOjNS2j1A4-24">
          <mxGeometry relative="1" as="geometry">
            <Array as="points">
              <mxPoint x="370" y="370" />
              <mxPoint x="460" y="370" />
            </Array>
          </mxGeometry>
        </mxCell>
        <mxCell id="6q0HeRaA8yAOjNS2j1A4-1" value="Home Page" style="rounded=0;whiteSpace=wrap;html=1;" vertex="1" parent="1">
          <mxGeometry x="310" y="110" width="120" height="60" as="geometry" />
        </mxCell>
        <mxCell id="6q0HeRaA8yAOjNS2j1A4-2" value="&lt;span id=&quot;docs-internal-guid-018847da-7fff-2ef8-a116-ee9dbf9c676a&quot; style=&quot;font-size: 20px;&quot;&gt;&lt;span style=&quot;font-size: 20px; font-family: &amp;quot;Times New Roman&amp;quot;, serif; color: rgb(0, 0, 0); background-color: transparent; font-style: normal; font-variant: normal; text-decoration: none; vertical-align: baseline;&quot;&gt;Chesapeake Community Connection website&lt;/span&gt;&lt;/span&gt;" style="text;whiteSpace=wrap;html=1;fontSize=20;fontStyle=1" vertex="1" parent="1">
          <mxGeometry x="340" y="40" width="390" height="30" as="geometry" />
        </mxCell>
        <mxCell id="yUeIj0rYSy2zIqelzKpr-1" value="What is this website about information" style="rounded=0;whiteSpace=wrap;html=1;shape=hexagon;perimeter=hexagonPerimeter2;fixedSize=1;" vertex="1" parent="1">
          <mxGeometry x="580" y="250" width="120" height="60" as="geometry" />
        </mxCell>
        <mxCell id="_0W_UiDIhL5YJicFL3R5-1" value="Menu Navigation" style="rounded=0;whiteSpace=wrap;html=1;shape=hexagon;perimeter=hexagonPerimeter2;fixedSize=1;" vertex="1" parent="1">
          <mxGeometry x="580" y="180" width="120" height="60" as="geometry" />
        </mxCell>
        <mxCell id="6q0HeRaA8yAOjNS2j1A4-6" value="Map" style="rounded=0;whiteSpace=wrap;html=1;" vertex="1" parent="1">
          <mxGeometry x="150" y="490" width="120" height="60" as="geometry" />
        </mxCell>
        <mxCell id="6q0HeRaA8yAOjNS2j1A4-7" value="Current Uploads/News" style="rounded=0;whiteSpace=wrap;html=1;shape=hexagon;perimeter=hexagonPerimeter2;fixedSize=1;" vertex="1" parent="1">
          <mxGeometry x="580" y="400" width="120" height="60" as="geometry" />
        </mxCell>
        <mxCell id="_0W_UiDIhL5YJicFL3R5-3" value="filter by views" style="rounded=0;whiteSpace=wrap;html=1;shape=hexagon;perimeter=hexagonPerimeter2;fixedSize=1;" vertex="1" parent="1">
          <mxGeometry x="80" y="640" width="120" height="60" as="geometry" />
        </mxCell>
        <mxCell id="_0W_UiDIhL5YJicFL3R5-4" value="filter by org / individual" style="rounded=0;whiteSpace=wrap;html=1;shape=hexagon;perimeter=hexagonPerimeter2;fixedSize=1;" vertex="1" parent="1">
          <mxGeometry x="90" y="570" width="120" height="60" as="geometry" />
        </mxCell>
        <mxCell id="6q0HeRaA8yAOjNS2j1A4-8" value="Logo" style="rounded=0;whiteSpace=wrap;html=1;shape=hexagon;perimeter=hexagonPerimeter2;fixedSize=1;" vertex="1" parent="1">
          <mxGeometry x="580" y="110" width="120" height="60" as="geometry" />
        </mxCell>
        <mxCell id="6q0HeRaA8yAOjNS2j1A4-16" value="Login" style="shape=hexagon;perimeter=hexagonPerimeter2;whiteSpace=wrap;html=1;fixedSize=1;" vertex="1" parent="1">
          <mxGeometry x="580" y="320" width="120" height="60" as="geometry" />
        </mxCell>
        <mxCell id="6q0HeRaA8yAOjNS2j1A4-19" value="News" style="whiteSpace=wrap;html=1;rounded=0;" vertex="1" parent="1">
          <mxGeometry x="230" y="570" width="120" height="60" as="geometry" />
        </mxCell>
        <mxCell id="6q0HeRaA8yAOjNS2j1A4-22" value="Make an Upload" style="rounded=0;whiteSpace=wrap;html=1;" vertex="1" parent="1">
          <mxGeometry x="320" y="490" width="120" height="60" as="geometry" />
        </mxCell>
        <mxCell id="6q0HeRaA8yAOjNS2j1A4-24" value="Discussion Board" style="rounded=0;whiteSpace=wrap;html=1;" vertex="1" parent="1">
          <mxGeometry x="420" y="570" width="120" height="60" as="geometry" />
        </mxCell>
      </root>
    </mxGraphModel>
  </diagram>
</mxfile>
